<svg width="1920" height="64" viewBox="0 0 1920 64" fill="none" xmlns="http://www.w3.org/2000/svg">
<rect width="2415.53" height="127.227" transform="matrix(0.999719 -0.0237114 0.0311769 0.999514 -378.558 103.547)" fill="#F1AA1E"/>
<path d="M-272.048 54.7448L-378.049 79.5138L-377.301 103.517L2037.55 46.2417L2036.11 -0.000105487L1956.62 24.14L1852.76 16.359L1752.07 28.9916L1597.33 10.4068L1462.29 35.8647L1376.74 27.6494L1284.62 52.089L1094.79 22.3261L994.468 46.9604L930.01 26.2343L811.125 63.3195L650.33 32.8678L563.268 57.1876L531.382 47.6996L496.978 58.7599L419.262 38.3483L300.377 75.4335L201.452 43.5143L77.1417 68.7176L23.1591 59.7536L-82.2112 84.5077L-272.048 54.7448Z" fill="#F1AA1E"/>
<rect width="2415.53" height="127.227" transform="matrix(0.999719 -0.0237114 0.0311769 0.999514 -213.747 110.432)" fill="#20A09C"/>
<path d="M-107.237 61.63L-213.238 86.3991L-212.49 110.402L2202.36 53.127L2200.92 6.88515L2121.43 31.0253L2017.57 23.2443L1916.88 35.8768L1762.14 17.2921L1627.1 42.7499L1541.55 34.5347L1449.44 58.9743L1259.6 29.2114L1159.28 53.8456L1094.82 33.1196L975.936 70.2048L815.141 39.753L728.079 64.0729L696.193 54.5848L661.789 65.6451L584.073 45.2335L465.188 82.3187L366.263 50.3996L241.953 75.6028L187.97 66.6389L82.5998 91.3929L-107.237 61.63Z" fill="#20A09C"/>
</svg>
