<svg width="16" height="8" viewBox="0 0 16 8" fill="none" xmlns="http://www.w3.org/2000/svg">
<path fill-rule="evenodd" clip-rule="evenodd" d="M0.292566 0.271004C0.479952 0.104586 0.734068 0.0110978 0.999032 0.0110978C1.264 0.0110978 1.51811 0.104586 1.7055 0.271004L7.99375 5.85729L14.282 0.271004C14.3742 0.18622 14.4844 0.118592 14.6064 0.072069C14.7283 0.0255456 14.8594 0.00105776 14.9921 3.35163e-05C15.1248 -0.000990724 15.2563 0.0214698 15.3791 0.066104C15.5019 0.110738 15.6135 0.176653 15.7073 0.260001C15.8011 0.343349 15.8753 0.442462 15.9256 0.551557C15.9758 0.660652 16.0011 0.777543 16 0.895411C15.9988 1.01328 15.9712 1.12976 15.9189 1.23807C15.8665 1.34637 15.7904 1.44432 15.6949 1.52621L8.70022 7.74009C8.51283 7.90651 8.25872 8 7.99375 8C7.72879 8 7.47467 7.90651 7.28729 7.74009L0.292566 1.52621C0.105236 1.35974 0 1.13399 0 0.898606C0 0.66322 0.105236 0.437472 0.292566 0.271004Z" fill="#535252"/>
</svg>
