<svg width="199" height="89" viewBox="0 0 199 89" fill="none" xmlns="http://www.w3.org/2000/svg">
<circle cx="5.03276" cy="5.57438" r="4.90739" fill="#F1AA1E"/>
<circle cx="5.03276" cy="57.9196" r="4.90739" fill="#F1AA1E"/>
<circle cx="5.03276" cy="31.7472" r="4.90739" fill="#F1AA1E"/>
<circle cx="5.03276" cy="84.0924" r="4.90739" fill="#F1AA1E"/>
<circle cx="112.995" cy="5.57438" r="4.90739" fill="#F1AA1E"/>
<circle cx="112.995" cy="57.9196" r="4.90739" fill="#F1AA1E"/>
<circle cx="112.995" cy="31.7472" r="4.90739" fill="#F1AA1E"/>
<circle cx="112.995" cy="84.0924" r="4.90739" fill="#F1AA1E"/>
<circle cx="59.014" cy="5.57438" r="4.90739" fill="#F1AA1E"/>
<circle cx="59.014" cy="57.9196" r="4.90739" fill="#F1AA1E"/>
<circle cx="59.014" cy="31.7472" r="4.90739" fill="#F1AA1E"/>
<circle cx="59.014" cy="84.0924" r="4.90739" fill="#F1AA1E"/>
<circle cx="166.977" cy="5.57438" r="4.90739" fill="#F1AA1E"/>
<circle cx="166.977" cy="57.9196" r="4.90739" fill="#F1AA1E"/>
<circle cx="166.977" cy="31.7472" r="4.90739" fill="#F1AA1E"/>
<circle cx="166.977" cy="84.0924" r="4.90739" fill="#F1AA1E"/>
<circle cx="32.0234" cy="5.57438" r="4.90739" fill="#F1AA1E"/>
<circle cx="32.0234" cy="57.9196" r="4.90739" fill="#F1AA1E"/>
<circle cx="32.0234" cy="31.7472" r="4.90739" fill="#F1AA1E"/>
<circle cx="32.0234" cy="84.0924" r="4.90739" fill="#F1AA1E"/>
<circle cx="139.986" cy="5.57438" r="4.90739" fill="#F1AA1E"/>
<circle cx="139.986" cy="57.9196" r="4.90739" fill="#F1AA1E"/>
<circle cx="139.986" cy="31.7472" r="4.90739" fill="#F1AA1E"/>
<circle cx="139.986" cy="84.0924" r="4.90739" fill="#F1AA1E"/>
<circle cx="86.0047" cy="5.57438" r="4.90739" fill="#F1AA1E"/>
<circle cx="86.0047" cy="57.9196" r="4.90739" fill="#F1AA1E"/>
<circle cx="86.0047" cy="31.7472" r="4.90739" fill="#F1AA1E"/>
<circle cx="86.0047" cy="84.0924" r="4.90739" fill="#F1AA1E"/>
<circle cx="193.967" cy="5.57438" r="4.90739" fill="#F1AA1E"/>
<circle cx="193.967" cy="57.9196" r="4.90739" fill="#F1AA1E"/>
<circle cx="193.967" cy="31.7472" r="4.90739" fill="#F1AA1E"/>
<circle cx="193.967" cy="84.0924" r="4.90739" fill="#F1AA1E"/>
</svg>
