<svg width="100" height="200" viewBox="0 0 100 200" fill="none" xmlns="http://www.w3.org/2000/svg">
<circle cx="5.11552" cy="194.634" r="4.90739" transform="rotate(-90 5.11552 194.634)" fill="#22A09C"/>
<circle cx="64.7452" cy="194.634" r="4.90739" transform="rotate(-90 64.7452 194.634)" fill="#22A09C"/>
<circle cx="34.9304" cy="194.634" r="4.90739" transform="rotate(-90 34.9304 194.634)" fill="#22A09C"/>
<circle cx="94.56" cy="194.634" r="4.90739" transform="rotate(-90 94.56 194.634)" fill="#22A09C"/>
<circle cx="5.11552" cy="86.6712" r="4.90739" transform="rotate(-90 5.11552 86.6712)" fill="#22A09C"/>
<circle cx="64.7452" cy="86.6712" r="4.90739" transform="rotate(-90 64.7452 86.6712)" fill="#22A09C"/>
<circle cx="34.9304" cy="86.6712" r="4.90739" transform="rotate(-90 34.9304 86.6712)" fill="#22A09C"/>
<circle cx="94.56" cy="86.6712" r="4.90739" transform="rotate(-90 94.56 86.6712)" fill="#22A09C"/>
<circle cx="5.11552" cy="140.652" r="4.90739" transform="rotate(-90 5.11552 140.652)" fill="#22A09C"/>
<circle cx="64.7452" cy="140.652" r="4.90739" transform="rotate(-90 64.7452 140.652)" fill="#22A09C"/>
<circle cx="34.9304" cy="140.652" r="4.90739" transform="rotate(-90 34.9304 140.652)" fill="#22A09C"/>
<circle cx="94.56" cy="140.652" r="4.90739" transform="rotate(-90 94.56 140.652)" fill="#22A09C"/>
<circle cx="5.11552" cy="32.6898" r="4.90739" transform="rotate(-90 5.11552 32.6898)" fill="#22A09C"/>
<circle cx="64.7452" cy="32.6898" r="4.90739" transform="rotate(-90 64.7452 32.6898)" fill="#22A09C"/>
<circle cx="34.9304" cy="32.6898" r="4.90739" transform="rotate(-90 34.9304 32.6898)" fill="#22A09C"/>
<circle cx="94.56" cy="32.6898" r="4.90739" transform="rotate(-90 94.56 32.6898)" fill="#22A09C"/>
<circle cx="5.11552" cy="167.643" r="4.90739" transform="rotate(-90 5.11552 167.643)" fill="#22A09C"/>
<circle cx="64.7452" cy="167.643" r="4.90739" transform="rotate(-90 64.7452 167.643)" fill="#22A09C"/>
<circle cx="34.9304" cy="167.643" r="4.90739" transform="rotate(-90 34.9304 167.643)" fill="#22A09C"/>
<circle cx="94.56" cy="167.643" r="4.90739" transform="rotate(-90 94.56 167.643)" fill="#22A09C"/>
<circle cx="5.11552" cy="59.6805" r="4.90739" transform="rotate(-90 5.11552 59.6805)" fill="#22A09C"/>
<circle cx="64.7452" cy="59.6805" r="4.90739" transform="rotate(-90 64.7452 59.6805)" fill="#22A09C"/>
<circle cx="34.9304" cy="59.6805" r="4.90739" transform="rotate(-90 34.9304 59.6805)" fill="#22A09C"/>
<circle cx="94.56" cy="59.6805" r="4.90739" transform="rotate(-90 94.56 59.6805)" fill="#22A09C"/>
<circle cx="5.11552" cy="113.662" r="4.90739" transform="rotate(-90 5.11552 113.662)" fill="#22A09C"/>
<circle cx="64.7452" cy="113.662" r="4.90739" transform="rotate(-90 64.7452 113.662)" fill="#22A09C"/>
<circle cx="34.9304" cy="113.662" r="4.90739" transform="rotate(-90 34.9304 113.662)" fill="#22A09C"/>
<circle cx="94.56" cy="113.662" r="4.90739" transform="rotate(-90 94.56 113.662)" fill="#22A09C"/>
<circle cx="5.11552" cy="5.69906" r="4.90739" transform="rotate(-90 5.11552 5.69906)" fill="#22A09C"/>
<circle cx="64.7452" cy="5.69906" r="4.90739" transform="rotate(-90 64.7452 5.69906)" fill="#22A09C"/>
<circle cx="34.9303" cy="5.69906" r="4.90739" transform="rotate(-90 34.9303 5.69906)" fill="#22A09C"/>
<circle cx="94.56" cy="5.69906" r="4.90739" transform="rotate(-90 94.56 5.69906)" fill="#22A09C"/>
</svg>
