<svg width="118" height="89" viewBox="0 0 118 89" fill="none" xmlns="http://www.w3.org/2000/svg">
<circle cx="31.8981" cy="4.90739" r="4.90739" fill="#F1AA1E"/>
<circle cx="31.8981" cy="57.2526" r="4.90739" fill="#F1AA1E"/>
<circle cx="31.8981" cy="31.0802" r="4.90739" fill="#F1AA1E"/>
<circle cx="31.8981" cy="83.4255" r="4.90739" fill="#F1AA1E"/>
<circle cx="85.8793" cy="4.90739" r="4.90739" fill="#F1AA1E"/>
<circle cx="85.8793" cy="57.2526" r="4.90739" fill="#F1AA1E"/>
<circle cx="85.8793" cy="31.0802" r="4.90739" fill="#F1AA1E"/>
<circle cx="85.8793" cy="83.4255" r="4.90739" fill="#F1AA1E"/>
<circle cx="58.8887" cy="4.90739" r="4.90739" fill="#F1AA1E"/>
<circle cx="58.8887" cy="57.2526" r="4.90739" fill="#F1AA1E"/>
<circle cx="58.8887" cy="31.0802" r="4.90739" fill="#F1AA1E"/>
<circle cx="58.8887" cy="83.4255" r="4.90739" fill="#F1AA1E"/>
<circle cx="4.90739" cy="4.90739" r="4.90739" fill="#F1AA1E"/>
<circle cx="4.90739" cy="57.2526" r="4.90739" fill="#F1AA1E"/>
<circle cx="4.90739" cy="31.0802" r="4.90739" fill="#F1AA1E"/>
<circle cx="4.90739" cy="83.4255" r="4.90739" fill="#F1AA1E"/>
<circle cx="112.87" cy="4.90739" r="4.90739" fill="#F1AA1E"/>
<circle cx="112.87" cy="57.2526" r="4.90739" fill="#F1AA1E"/>
<circle cx="112.87" cy="31.0802" r="4.90739" fill="#F1AA1E"/>
<circle cx="112.87" cy="83.4255" r="4.90739" fill="#F1AA1E"/>
</svg>
