<svg width="89" height="118" viewBox="0 0 89 118" fill="none" xmlns="http://www.w3.org/2000/svg">
<circle cx="4.90739" cy="85.8792" r="4.90739" transform="rotate(-90 4.90739 85.8792)" fill="white" fill-opacity="0.5"/>
<circle cx="57.2526" cy="85.8792" r="4.90739" transform="rotate(-90 57.2526 85.8792)" fill="white" fill-opacity="0.5"/>
<circle cx="31.0802" cy="85.8792" r="4.90739" transform="rotate(-90 31.0802 85.8792)" fill="white" fill-opacity="0.5"/>
<circle cx="83.4255" cy="85.8792" r="4.90739" transform="rotate(-90 83.4255 85.8792)" fill="white" fill-opacity="0.5"/>
<circle cx="4.90739" cy="31.8983" r="4.90739" transform="rotate(-90 4.90739 31.8983)" fill="white" fill-opacity="0.5"/>
<circle cx="57.2526" cy="31.8978" r="4.90739" transform="rotate(-90 57.2526 31.8978)" fill="white" fill-opacity="0.5"/>
<circle cx="31.0802" cy="31.8978" r="4.90739" transform="rotate(-90 31.0802 31.8978)" fill="white" fill-opacity="0.5"/>
<circle cx="83.4255" cy="31.8978" r="4.90739" transform="rotate(-90 83.4255 31.8978)" fill="white" fill-opacity="0.5"/>
<circle cx="4.90739" cy="58.8885" r="4.90739" transform="rotate(-90 4.90739 58.8885)" fill="white" fill-opacity="0.5"/>
<circle cx="57.2526" cy="58.8885" r="4.90739" transform="rotate(-90 57.2526 58.8885)" fill="white" fill-opacity="0.5"/>
<circle cx="31.0802" cy="58.8885" r="4.90739" transform="rotate(-90 31.0802 58.8885)" fill="white" fill-opacity="0.5"/>
<circle cx="83.4255" cy="58.8885" r="4.90739" transform="rotate(-90 83.4255 58.8885)" fill="white" fill-opacity="0.5"/>
<circle cx="4.90739" cy="112.87" r="4.90739" transform="rotate(-90 4.90739 112.87)" fill="white" fill-opacity="0.5"/>
<circle cx="57.2526" cy="112.87" r="4.90739" transform="rotate(-90 57.2526 112.87)" fill="white" fill-opacity="0.5"/>
<circle cx="31.0802" cy="112.87" r="4.90739" transform="rotate(-90 31.0802 112.87)" fill="white" fill-opacity="0.5"/>
<circle cx="83.4255" cy="112.87" r="4.90739" transform="rotate(-90 83.4255 112.87)" fill="white" fill-opacity="0.5"/>
<circle cx="4.90739" cy="4.90755" r="4.90739" transform="rotate(-90 4.90739 4.90755)" fill="white" fill-opacity="0.5"/>
<circle cx="57.2526" cy="4.90755" r="4.90739" transform="rotate(-90 57.2526 4.90755)" fill="white" fill-opacity="0.5"/>
<circle cx="31.0802" cy="4.90755" r="4.90739" transform="rotate(-90 31.0802 4.90755)" fill="white" fill-opacity="0.5"/>
<circle cx="83.4255" cy="4.90755" r="4.90739" transform="rotate(-90 83.4255 4.90755)" fill="white" fill-opacity="0.5"/>
</svg>
