<svg width="727" height="106" viewBox="0 0 727 106" fill="none" xmlns="http://www.w3.org/2000/svg">
<path d="M132.815 35.1963H141.421V50.6804H157.296V35.1963H165.902V74.3269H157.296V58.6209H141.421V74.3269H132.815V35.1963Z" fill="#4A4A49"/>
<path d="M208.031 74.3205H199.532V48.6638L182.428 74.3205H174.326V35.1899H182.825V60.8467L200.043 35.1899H208.038V74.3205H208.031Z" fill="#4A4A49"/>
<path d="M216.449 35.1963H225.055V52.3008L240.929 35.1963H251.323L235.395 51.7965L252.05 74.3202H241.709L229.58 57.6661L225.055 62.3591V74.3202H216.449V35.1963Z" fill="#4A4A49"/>
<path d="M251.606 54.7621C251.606 43.6414 260.38 34.5244 272.455 34.5244C284.531 34.5244 293.19 43.5204 293.19 54.7621C293.19 65.8827 284.416 74.9997 272.341 74.9997C260.266 74.993 251.606 65.997 251.606 54.7621ZM284.188 54.7621C284.188 48.052 279.266 42.4648 272.341 42.4648C265.409 42.4648 260.602 47.9445 260.602 54.7621C260.602 61.4721 265.523 67.0593 272.449 67.0593C279.387 67.0593 284.188 61.5797 284.188 54.7621Z" fill="#4A4A49"/>
<path d="M331.743 35.1963V74.3269H323.137V42.9686H311.848V45.9337C311.848 68.9616 308.103 74.8312 299.161 74.8312C297.762 74.8312 295.698 74.6093 294.636 74.3269L295.194 67.2269C295.584 67.2807 295.974 67.3412 296.539 67.3412C301.178 67.3412 303.807 64.3762 303.807 43.3048V35.1963H331.743Z" fill="#4A4A49"/>
<path d="M340.154 35.1963H348.76V48.502H357.09C366.147 48.502 371.398 53.5312 371.398 61.1892C371.398 69.2372 365.696 74.3269 356.532 74.3269H340.154V35.1963ZM348.767 55.8777V66.5546H356.425C360.674 66.5546 362.852 64.7123 362.852 61.0749C362.852 57.7737 360.674 55.8777 356.371 55.8777H348.767Z" fill="#4A4A49"/>
<path d="M375.513 54.7621C375.513 43.6414 383.897 34.5244 395.912 34.5244C403.287 34.5244 407.429 37.3214 411.06 40.8983L405.916 46.8217C402.897 44.0852 400.329 42.4648 395.851 42.4648C389.255 42.4648 384.502 47.9445 384.502 54.7621C384.502 61.4721 389.141 67.0593 395.851 67.0593C400.322 67.0593 403.059 65.2709 406.138 62.4739L411.618 68.3435C407.59 72.6465 403.119 74.993 395.575 74.993C384.065 74.993 375.513 66.1046 375.513 54.7621Z" fill="#4A4A49"/>
<path d="M416.828 35.1963H425.434V52.3008L441.309 35.1963H451.703L435.775 51.7965L452.429 74.3202H442.089L429.959 57.6661L425.434 62.3591V74.3202H416.828V35.1963Z" fill="#4A4A49"/>
<path d="M490.619 74.3205H482.12V48.6638L465.016 74.3205H456.907V35.1899H465.406V60.8467L482.624 35.1899H490.619V74.3205Z" fill="#4A4A49"/>
<path d="M532.741 74.3206H524.243V48.6638L507.138 74.3206H499.03V35.19H507.528V60.8468L524.747 35.19H532.741V74.3206ZM506.641 23.7399L511.616 22.8457C512.342 25.1384 513.687 26.5907 516.033 26.5907C518.38 26.5907 519.724 25.1384 520.451 22.8457L525.426 23.7399C524.646 29.1053 521.177 32.2384 516.033 32.2384C510.883 32.2317 507.42 29.1053 506.641 23.7399Z" fill="#4A4A49"/>
<path d="M558.895 35.1963H568.174L578.461 51.7428L588.748 35.1963H598.026V74.3269H589.474V48.7844L578.461 65.499H578.239L567.34 48.9525V74.3269H558.902V35.1963H558.895Z" fill="#4A4A49"/>
<path d="M604.333 54.7621C604.333 43.6414 613.107 34.5244 625.182 34.5244C637.257 34.5244 645.917 43.5204 645.917 54.7621C645.917 65.8827 637.143 74.9997 625.068 74.9997C612.999 74.993 604.333 65.997 604.333 54.7621ZM636.921 54.7621C636.921 48.052 632 42.4648 625.074 42.4648C618.143 42.4648 613.335 47.9445 613.335 54.7621C613.335 61.4721 618.257 67.0593 625.182 67.0593C632.114 67.0593 636.921 61.5797 636.921 54.7621Z" fill="#4A4A49"/>
<path d="M684.47 35.1963V74.3269H675.864V42.9686H664.575V45.9337C664.575 68.9616 660.83 74.8312 651.888 74.8312C650.489 74.8312 648.425 74.6093 647.363 74.3269L647.921 67.2269C648.311 67.2807 648.701 67.3412 649.266 67.3412C653.905 67.3412 656.534 64.3762 656.534 43.3048V35.1963H684.47Z" fill="#4A4A49"/>
<path d="M726.135 35.1963V74.3269H717.529V42.9686H706.24V45.9337C706.24 68.9616 702.495 74.8312 693.553 74.8312C692.155 74.8312 690.091 74.6093 689.028 74.3269L689.586 67.2269C689.976 67.2807 690.366 67.3412 690.931 67.3412C695.57 67.3412 698.199 64.3762 698.199 43.3048V35.1963H726.135Z" fill="#4A4A49"/>
<path d="M95.4396 89.7719L75.6726 70.0049L67.8936 77.7839L87.6606 97.551L95.4396 105.33V89.7719Z" fill="#973D8E"/>
<path d="M75.6726 70.0049L67.8936 77.7839L60.1145 70.0049H75.6726Z" fill="#ED704A"/>
<path d="M60.1145 70.0049L40.3475 89.7719V105.33L48.1266 97.551L67.8936 77.7839L60.1145 70.0049Z" fill="#1DA39F"/>
<path d="M36.7773 15.5581L60.1145 38.8953L67.8935 31.1162L44.5564 7.77904L36.7773 0V15.5581Z" fill="#1DA39F"/>
<path d="M60.1145 38.8953L67.8936 31.1162L75.6726 38.8953H60.1145Z" fill="#973D8E"/>
<path d="M75.6726 38.8953L99.0098 15.5581V0L91.2375 7.77904L67.8936 31.1162L75.6726 38.8953Z" fill="#ED704A"/>
<path d="M15.5581 99.0101L52.3422 62.2259L44.5631 54.4536L7.779 91.2377L-6.10352e-05 99.0101H15.5581Z" fill="#973D8E"/>
<path d="M52.3422 62.2257L44.5631 54.4534L52.3422 46.6743V62.2257Z" fill="#1DA39F"/>
<path d="M52.3422 46.6742L15.5581 9.89014H-6.10352e-05L7.779 17.6625L44.5631 54.4533L52.3422 46.6742Z" fill="#ED704A"/>
<path d="M95.285 34.8345L83.4517 46.6745L91.224 54.4536L103.064 42.6135L110.843 34.8345H95.285Z" fill="#973D8E"/>
<path d="M83.4517 46.6743L91.224 54.4534L83.4517 62.2257V46.6743Z" fill="#1DA39F"/>
<path d="M83.4517 62.2259L95.285 74.066H110.843L103.064 66.2869L91.224 54.4536L83.4517 62.2259Z" fill="#ED704A"/>
</svg>
