<svg width="327" height="48" viewBox="0 0 327 48" fill="none" xmlns="http://www.w3.org/2000/svg">
<path d="M59.6804 15.8154H63.5475V22.7732H70.6805V15.8154H74.5477V33.3987H70.6805V26.3412H63.5475V33.3987H59.6804V15.8154Z" fill="#4A4A49"/>
<path d="M93.4784 33.396H89.6596V21.8672L81.9737 33.396H78.3332V15.8127H82.152V27.3416L89.8892 15.8127H93.4814V33.396H93.4784Z" fill="#4A4A49"/>
<path d="M97.2609 15.8154H101.128V23.5013L108.261 15.8154H112.932L105.775 23.2747L113.258 33.3957H108.611L103.161 25.9122L101.128 28.021V33.3957H97.2609V15.8154Z" fill="#4A4A49"/>
<path d="M113.059 24.6074C113.059 19.6104 117.001 15.5137 122.427 15.5137C127.853 15.5137 131.745 19.556 131.745 24.6074C131.745 29.6045 127.802 33.7012 122.376 33.7012C116.95 33.6982 113.059 29.6558 113.059 24.6074ZM127.699 24.6074C127.699 21.5923 125.488 19.0817 122.376 19.0817C119.261 19.0817 117.101 21.544 117.101 24.6074C117.101 27.6226 119.313 30.1332 122.424 30.1332C125.542 30.1332 127.699 27.6709 127.699 24.6074Z" fill="#4A4A49"/>
<path d="M149.068 15.8154V33.3987H145.201V19.3079H140.128V20.6403C140.128 30.9878 138.446 33.6253 134.427 33.6253C133.799 33.6253 132.872 33.5256 132.394 33.3987L132.645 30.2083C132.82 30.2325 132.995 30.2597 133.249 30.2597C135.334 30.2597 136.515 28.9274 136.515 19.459V15.8154H149.068Z" fill="#4A4A49"/>
<path d="M152.848 15.8154H156.715V21.7944H160.458C164.528 21.7944 166.887 24.0542 166.887 27.4953C166.887 31.1117 164.325 33.3987 160.207 33.3987H152.848V15.8154ZM156.718 25.1086V29.9062H160.159C162.068 29.9062 163.047 29.0784 163.047 27.444C163.047 25.9606 162.068 25.1086 160.135 25.1086H156.718Z" fill="#4A4A49"/>
<path d="M168.736 24.6074C168.736 19.6104 172.503 15.5137 177.902 15.5137C181.217 15.5137 183.078 16.7705 184.709 18.3778L182.398 21.0394C181.041 19.8098 179.887 19.0817 177.875 19.0817C174.911 19.0817 172.775 21.544 172.775 24.6074C172.775 27.6226 174.86 30.1332 177.875 30.1332C179.884 30.1332 181.114 29.3295 182.498 28.0727L184.96 30.7102C183.15 32.6438 181.141 33.6982 177.751 33.6982C172.579 33.6982 168.736 29.7042 168.736 24.6074Z" fill="#4A4A49"/>
<path d="M187.301 15.8154H191.168V23.5013L198.301 15.8154H202.972L195.815 23.2747L203.298 33.3957H198.652L193.202 25.9122L191.168 28.021V33.3957H187.301V15.8154Z" fill="#4A4A49"/>
<path d="M220.459 33.396H216.64V21.8672L208.954 33.396H205.31V15.8127H209.129V27.3416L216.867 15.8127H220.459V33.396Z" fill="#4A4A49"/>
<path d="M239.386 33.3958H235.568V21.867L227.882 33.3958H224.238V15.8125H228.057V27.3414L235.794 15.8125H239.386V33.3958ZM227.658 10.6674L229.894 10.2656C230.22 11.2958 230.824 11.9484 231.879 11.9484C232.933 11.9484 233.537 11.2958 233.864 10.2656L236.099 10.6674C235.749 13.0784 234.19 14.4862 231.879 14.4862C229.565 14.4832 228.009 13.0784 227.658 10.6674Z" fill="#4A4A49"/>
<path d="M251.139 15.8154H255.308L259.93 23.2506L264.553 15.8154H268.722V33.3987H264.879V21.9212L259.93 29.4319H259.831L254.933 21.9968V33.3987H251.142V15.8154H251.139Z" fill="#4A4A49"/>
<path d="M271.556 24.6074C271.556 19.6104 275.499 15.5137 280.925 15.5137C286.351 15.5137 290.242 19.556 290.242 24.6074C290.242 29.6045 286.299 33.7012 280.873 33.7012C275.45 33.6982 271.556 29.6558 271.556 24.6074ZM286.2 24.6074C286.2 21.5923 283.988 19.0817 280.876 19.0817C277.761 19.0817 275.601 21.544 275.601 24.6074C275.601 27.6226 277.813 30.1332 280.925 30.1332C284.039 30.1332 286.2 27.6709 286.2 24.6074Z" fill="#4A4A49"/>
<path d="M307.565 15.8154V33.3987H303.698V19.3079H298.626V20.6403C298.626 30.9878 296.943 33.6253 292.925 33.6253C292.296 33.6253 291.369 33.5256 290.891 33.3987L291.142 30.2083C291.317 30.2325 291.493 30.2597 291.746 30.2597C293.831 30.2597 295.012 28.9274 295.012 19.459V15.8154H307.565Z" fill="#4A4A49"/>
<path d="M326.288 15.8154V33.3987H322.42V19.3079H317.348V20.6403C317.348 30.9878 315.665 33.6253 311.647 33.6253C311.019 33.6253 310.091 33.5256 309.614 33.3987L309.864 30.2083C310.04 30.2325 310.215 30.2597 310.469 30.2597C312.553 30.2597 313.735 28.9274 313.735 19.459V15.8154H326.288Z" fill="#4A4A49"/>
<path d="M42.8856 40.3388L34.0034 31.4565L30.5079 34.952L39.3901 43.8343L42.8856 47.3298V40.3388Z" fill="#973D8E"/>
<path d="M34.0034 31.4565L30.5079 34.952L27.0124 31.4565H34.0034Z" fill="#ED704A"/>
<path d="M27.0124 31.4565L18.1301 40.3388V47.3298L21.6256 43.8343L30.5079 34.952L27.0124 31.4565Z" fill="#1DA39F"/>
<path d="M16.5258 6.99101L27.0124 17.4775L30.5079 13.982L20.0213 3.4955L16.5258 0V6.99101Z" fill="#1DA39F"/>
<path d="M27.0124 17.4777L30.5079 13.9822L34.0034 17.4777H27.0124Z" fill="#973D8E"/>
<path d="M34.0034 17.4775L44.4899 6.99101V0L40.9974 3.4955L30.5079 13.982L34.0034 17.4775Z" fill="#ED704A"/>
<path d="M6.99098 44.4901L23.5199 27.9612L20.0244 24.4688L3.49548 40.9976L-3.05176e-05 44.4901H6.99098Z" fill="#973D8E"/>
<path d="M23.5199 27.9611L20.0244 24.4687L23.5199 20.9731V27.9611Z" fill="#1DA39F"/>
<path d="M23.5199 20.973L6.99098 4.44409H-3.05176e-05L3.49548 7.93658L20.0244 24.4685L23.5199 20.973Z" fill="#ED704A"/>
<path d="M42.8162 15.6528L37.4989 20.9731L40.9914 24.4686L46.3117 19.1483L49.8072 15.6528H42.8162Z" fill="#973D8E"/>
<path d="M37.4989 20.9731L40.9914 24.4687L37.4989 27.9611V20.9731Z" fill="#1DA39F"/>
<path d="M37.4989 27.9612L42.8162 33.2815H49.8072L46.3117 29.786L40.9914 24.4688L37.4989 27.9612Z" fill="#ED704A"/>
</svg>
