<svg width="159" height="23" viewBox="0 0 159 23" fill="none" xmlns="http://www.w3.org/2000/svg">
<path d="M28.9004 7.65845H30.773V11.0277H34.227V7.65845H36.0996V16.1729H34.227V12.7554H30.773V16.1729H28.9004V7.65845Z" fill="#4A4A49"/>
<path d="M45.2655 16.1714H43.4163V10.5888L39.6945 16.1714H37.9316V7.65698H39.7808V13.2397L43.5275 7.65698H45.2669V16.1714H45.2655Z" fill="#4A4A49"/>
<path d="M47.0977 7.65845H48.9702V11.3802L52.4243 7.65845H54.686L51.2203 11.2705L54.844 16.1714H52.594L49.9548 12.5477L48.9702 13.5688V16.1714H47.0977V7.65845Z" fill="#4A4A49"/>
<path d="M54.748 11.9157C54.748 9.49599 56.6572 7.51221 59.2847 7.51221C61.9122 7.51221 63.7965 9.46965 63.7965 11.9157C63.7965 14.3355 61.8873 16.3192 59.2598 16.3192C56.6323 16.3178 54.748 14.3603 54.748 11.9157ZM61.8376 11.9157C61.8376 10.4557 60.7667 9.23997 59.2598 9.23997C57.7515 9.23997 56.7055 10.4323 56.7055 11.9157C56.7055 13.3758 57.7764 14.5915 59.2832 14.5915C60.793 14.5915 61.8376 13.3992 61.8376 11.9157Z" fill="#4A4A49"/>
<path d="M72.1854 7.65845V16.1729H70.3128V9.34963H67.8565V9.9948C67.8565 15.0054 67.0416 16.2826 65.0959 16.2826C64.7916 16.2826 64.3425 16.2343 64.1113 16.1729L64.2328 14.628C64.3176 14.6397 64.4025 14.6529 64.5253 14.6529C65.5348 14.6529 66.1068 14.0077 66.1068 9.42278V7.65845H72.1854Z" fill="#4A4A49"/>
<path d="M74.0156 7.65845H75.8882V10.5537H77.7008C79.6714 10.5537 80.814 11.6479 80.814 13.3143C80.814 15.0654 79.5734 16.1729 77.5794 16.1729H74.0156V7.65845ZM75.8897 12.1585V14.4817H77.556C78.4806 14.4817 78.9546 14.0809 78.9546 13.2894C78.9546 12.5711 78.4806 12.1585 77.5443 12.1585H75.8897Z" fill="#4A4A49"/>
<path d="M81.709 11.9157C81.709 9.49599 83.5333 7.51221 86.1476 7.51221C87.7525 7.51221 88.6537 8.1208 89.4437 8.8991L88.3245 10.188C87.6676 9.59254 87.1088 9.23997 86.1344 9.23997C84.6993 9.23997 83.665 10.4323 83.665 11.9157C83.665 13.3758 84.6744 14.5915 86.1344 14.5915C87.1073 14.5915 87.7027 14.2023 88.3728 13.5937L89.5651 14.8709C88.6888 15.8072 87.7159 16.3178 86.0745 16.3178C83.5699 16.3178 81.709 14.3837 81.709 11.9157Z" fill="#4A4A49"/>
<path d="M90.6992 7.65845H92.5718V11.3802L96.0259 7.65845H98.2876L94.8218 11.2705L98.4456 16.1714H96.1956L93.5564 12.5477L92.5718 13.5688V16.1714H90.6992V7.65845Z" fill="#4A4A49"/>
<path d="M106.755 16.1714H104.906V10.5888L101.184 16.1714H99.4199V7.65698H101.269V13.2397L105.016 7.65698H106.755V16.1714Z" fill="#4A4A49"/>
<path d="M115.921 16.1714H114.072V10.5887L110.35 16.1714H108.586V7.65695H110.435V13.2396L114.182 7.65695H115.921V16.1714ZM110.242 5.16552L111.325 4.97095C111.483 5.46982 111.775 5.78582 112.286 5.78582C112.796 5.78582 113.089 5.46982 113.247 4.97095L114.33 5.16552C114.16 6.33297 113.405 7.01471 112.286 7.01471C111.165 7.01324 110.412 6.33297 110.242 5.16552Z" fill="#4A4A49"/>
<path d="M121.611 7.65845H123.63L125.869 11.2588L128.107 7.65845H130.126V16.1729H128.265V10.6151L125.869 14.252H125.82L123.449 10.6517V16.1729H121.613V7.65845H121.611Z" fill="#4A4A49"/>
<path d="M131.498 11.9157C131.498 9.49599 133.407 7.51221 136.035 7.51221C138.662 7.51221 140.546 9.46965 140.546 11.9157C140.546 14.3355 138.637 16.3192 136.01 16.3192C133.384 16.3178 131.498 14.3603 131.498 11.9157ZM138.589 11.9157C138.589 10.4557 137.518 9.23997 136.011 9.23997C134.503 9.23997 133.457 10.4323 133.457 11.9157C133.457 13.3758 134.528 14.5915 136.035 14.5915C137.543 14.5915 138.589 13.3992 138.589 11.9157Z" fill="#4A4A49"/>
<path d="M148.935 7.65845V16.1729H147.063V9.34963H144.607V9.9948C144.607 15.0054 143.792 16.2826 141.846 16.2826C141.542 16.2826 141.092 16.2343 140.861 16.1729L140.983 14.628C141.068 14.6397 141.152 14.6529 141.275 14.6529C142.285 14.6529 142.857 14.0077 142.857 9.42278V7.65845H148.935Z" fill="#4A4A49"/>
<path d="M158.002 7.65845V16.1729H156.129V9.34963H153.673V9.9948C153.673 15.0054 152.858 16.2826 150.912 16.2826C150.608 16.2826 150.159 16.2343 149.928 16.1729L150.049 14.628C150.134 14.6397 150.219 14.6529 150.342 14.6529C151.351 14.6529 151.923 14.0077 151.923 9.42278V7.65845H158.002Z" fill="#4A4A49"/>
<path d="M20.7672 19.5335L16.4661 15.2324L14.7734 16.9251L19.0745 21.2262L20.7672 22.9188V19.5335Z" fill="#973D8E"/>
<path d="M16.4654 15.2324L14.7727 16.9251L13.0801 15.2324H16.4654Z" fill="#ED704A"/>
<path d="M13.0804 15.2324L8.7793 19.5335V22.9188L10.4719 21.2262L14.7731 16.9251L13.0804 15.2324Z" fill="#1DA39F"/>
<path d="M8.00195 3.38529L13.0799 8.46324L14.7725 6.77059L9.6946 1.69264L8.00195 0V3.38529Z" fill="#1DA39F"/>
<path d="M13.0801 8.46315L14.7727 6.77051L16.4654 8.46315H13.0801Z" fill="#973D8E"/>
<path d="M16.4661 8.46324L21.544 3.38529V0L19.8528 1.69264L14.7734 6.77059L16.4661 8.46324Z" fill="#ED704A"/>
<path d="M3.3853 21.5437L11.3892 13.5398L9.69652 11.8486L1.69265 19.8525L0 21.5437H3.3853Z" fill="#973D8E"/>
<path d="M11.388 13.5396L9.69531 11.8484L11.388 10.1558V13.5396Z" fill="#1DA39F"/>
<path d="M11.3892 10.1557L3.3853 2.15186H0L1.69265 3.84304L9.69652 11.8484L11.3892 10.1557Z" fill="#ED704A"/>
<path d="M20.733 7.57959L18.1582 10.1559L19.8494 11.8485L22.4257 9.27223L24.1183 7.57959H20.733Z" fill="#973D8E"/>
<path d="M18.1582 10.1558L19.8494 11.8484L18.1582 13.5396V10.1558Z" fill="#1DA39F"/>
<path d="M18.1582 13.5398L20.733 16.1161H24.1183L22.4257 14.4234L19.8494 11.8486L18.1582 13.5398Z" fill="#ED704A"/>
</svg>
