<svg width="14" height="14" viewBox="0 0 14 14" fill="none" xmlns="http://www.w3.org/2000/svg">
<path fill-rule="evenodd" clip-rule="evenodd" d="M4.83754 2.5043C4.94693 2.39493 5.09528 2.3335 5.24996 2.3335C5.40464 2.3335 5.55298 2.39493 5.66237 2.5043L9.74571 6.58783C9.85506 6.69723 9.9165 6.84558 9.9165 7.00027C9.9165 7.15496 9.85506 7.30331 9.74571 7.41271L5.66237 11.4962C5.55236 11.6025 5.405 11.6613 5.25206 11.66C5.09911 11.6586 4.9528 11.5973 4.84465 11.4891C4.73649 11.381 4.67514 11.2347 4.67381 11.0817C4.67248 10.9288 4.73128 10.7814 4.83754 10.6714L8.50846 7.00027L4.83754 3.32917C4.72818 3.21977 4.66675 3.07142 4.66675 2.91673C4.66675 2.76205 4.72818 2.61369 4.83754 2.5043Z" fill="black"/>
</svg>
